<?xml version="1.0" encoding="utf-8"?>
<!-- Generator: Adobe Illustrator 17.0.0, SVG Export Plug-In . SVG Version: 6.00 Build 0)  -->
<!DOCTYPE svg PUBLIC "-//W3C//DTD SVG 1.1//EN" "http://www.w3.org/Graphics/SVG/1.1/DTD/svg11.dtd">
<svg version="1.1" id="Layer_1" xmlns="http://www.w3.org/2000/svg" xmlns:xlink="http://www.w3.org/1999/xlink" x="0px" y="0px"
	 width="402.846px" height="435.833px" viewBox="0 0 402.846 435.833" style="enable-background:new 0 0 402.846 435.833;"
	 xml:space="preserve">
<style type="text/css">
	.st0{fill:#73995B;}
	.st1{fill:#72A551;}
	.st2{fill:#80AA65;}
	.st3{fill:#62844D;}
	.st4{fill:#618E44;}
	.st5{fill:#ABCE95;}
	.st6{font-family:'OpenSans-Bold';}
	.st7{font-size:17.8456;}
</style>
<g>
	<path class="st0" d="M246.872,435.833c0,0-5.352-52.926,43.399-50.975c48.752,1.95,53.415,16.332,65.115-1.951
		c11.7-18.281-0.156-28.551,7.73-36.335c0,0,12.037-6.241,12.2-14.204c0.162-7.962-7.797-9.75-7.797-9.75s13.003-0.488,13.49-9.1
		c0.488-8.612-5.362-9.263,8.288-14.95c13.651-5.687,17.551-10.888,9.101-25.189c-8.45-14.301-36.727-54.602-33.476-71.828
		c3.25-17.226,43.877-116.031-57.527-172.584C205.992-27.585,37.31-3.209,6.109,118.671
		c-31.203,121.881,67.278,209.634,67.278,209.634s41.289,57.859,18.645,107.527H246.872z"/>
	<g>
		<path class="st1" d="M220.037,145.35c-14.871-35.054-51.412-11.081-51.412-11.081c-8.923-7.044-23.369-10.926-23.369-10.926
			c2.124-18.395-15.296-36.841-27.618-42.79c-9.627-4.648-4.211-31.602-1.381-43.168c2.106,0.102,3.302,0.285,3.302,0.285
			c42.6-41.354,86.224-9.494,86.224-9.494c60.517-19.844,77.76,27.585,77.76,27.585c0.527,0.056,1.053,0.121,1.577,0.194
			C274.203,62.341,211.891,100.936,220.037,145.35z"/>
		<path class="st2" d="M108.289,141.738c3.871-10.376,27.618-14.695,36.966-18.395c0,0,14.446,3.882,23.369,10.926
			c29.939,21.296-24.68,73.753-27.109,73.679c-2.429-0.074-22.639-8.253-5.295,15.175c14.738,19.907,40.799,14.773,50.846,11.878
			c-2.279,3.962-4.705,18.947-1.438,17.986c-10.777,23.84-34.961,34.823-60.833,36.077c-30.032,1.455-43.874-18.26-43.874-18.26
			c-40.64-16.012-23.884-59.896-23.884-59.896c-0.083-0.012-0.169-0.032-0.252-0.045C68.294,199.601,98.279,168.57,108.289,141.738z
			"/>
		<path class="st3" d="M18.898,151.338c1.196-38.013,22.758-52.477,22.758-52.477s2.508-18.343,19.16-37.919
			c20.939-22.948,46.478-23.991,55.441-23.557c-2.83,11.567-8.246,38.521,1.381,43.168c12.322,5.949,29.743,24.395,27.618,42.79
			c-9.348,3.7-33.095,8.019-36.966,18.395c-10.011,26.832-39.996,57.863-51.504,69.125C39.854,208.19,17.709,189.165,18.898,151.338
			z"/>
		<path class="st4" d="M136.22,223.123c-17.344-23.427,2.866-15.248,5.295-15.175c2.429,0.074,57.048-52.383,27.109-73.679
			c0,0,36.541-23.973,51.412,11.081c0,0,29.187,8.933,37.398,30.563c-1.699,5.377-2.521,17.903-2.586,18.771
			c-0.119,1.581,0.572,3.037,1.723,3.959c-5.266,45.951-66.822,41.847-66.822,41.847c-0.042,0.19-1.337-7.827-2.683-5.488
			C177.019,237.896,150.958,243.03,136.22,223.123z"/>
		<path class="st2" d="M220.037,145.35c-8.146-44.414,54.167-83.009,65.081-89.394c33.864,4.71,60.834,44.841,35.92,87.71
			c-19.404,33.387-48.005,33.78-60.281,32.152c0,0-3.322-0.453-3.322,0.095C249.223,154.283,220.037,145.35,220.037,145.35z"/>
	</g>
	<text transform="matrix(1 0 0 1 244.9759 128.3584)" class="st5 st6 st7">SENSES</text>
	<text transform="matrix(1 0 0 1 63.8724 256.3213)" class="st5 st6 st7">CHALLENGES</text>
	<text transform="matrix(1 0 0 1 166.0931 201.4033)" class="st5 st6 st7">PASSION</text>
	<text transform="matrix(1 0 0 1 31.3338 122.3435)" class="st5 st6 st7">BOOTCAMPS</text>
	<text transform="matrix(1 0 0 1 169.3216 63.6689)"><tspan x="0" y="0" class="st5 st6 st7">SUB </tspan><tspan x="-34.701" y="18.865" class="st5 st6 st7">CONSCIOUS</tspan></text>
</g>
</svg>
